<?xml version="1.0" standalone="no"?>
<!DOCTYPE svg PUBLIC "-//W3C//DTD SVG 20010904//EN"
 "http://www.w3.org/TR/2001/REC-SVG-20010904/DTD/svg10.dtd">
<svg version="1.0" xmlns="http://www.w3.org/2000/svg"
 width="512.000000pt" height="512.000000pt" viewBox="0 0 512.000000 512.000000"
 preserveAspectRatio="xMidYMid meet">
<metadata>
Created by potrace 1.14, written by Peter Selinger 2001-2017
</metadata>
<g transform="translate(0.000000,512.000000) scale(0.100000,-0.100000)"
fill="#000000" stroke="none">
<path d="M0 2560 l0 -2560 2560 0 2560 0 0 2560 0 2560 -2560 0 -2560 0 0
-2560z m2820 2020 l0 -50 -165 0 -165 0 0 -415 0 -415 -65 0 -65 0 0 415 0
415 -170 0 -170 0 0 50 0 50 400 0 400 0 0 -50z m502 -180 c75 -28 122 -71
158 -143 36 -74 50 -172 39 -277 -20 -184 -141 -300 -313 -300 -137 0 -236 62
-292 182 -27 59 -29 71 -29 188 0 117 2 129 29 188 36 77 108 146 175 166 68
21 170 20 233 -4z m-1352 -350 l0 -50 -170 0 -170 0 0 50 0 50 170 0 170 0 0
-50z m623 -934 c236 -45 346 -188 347 -448 0 -263 -111 -409 -347 -454 -48 -9
-140 -14 -259 -14 l-184 0 0 465 0 465 184 0 c119 0 211 -5 259 -14z m939
-216 c75 -28 122 -71 158 -143 36 -74 50 -172 39 -277 -20 -184 -141 -300
-313 -300 -137 0 -236 62 -292 182 -27 59 -29 71 -29 188 0 117 2 129 29 188
36 77 108 146 175 166 68 21 170 20 233 -4z m-1562 -350 l0 -50 -170 0 -170 0
0 50 0 50 170 0 170 0 0 -50z m592 -1150 c111 -41 178 -146 186 -287 l5 -83
-266 0 -266 0 6 -37 c9 -64 51 -142 92 -168 82 -55 223 -55 346 0 l55 24 0
-58 0 -58 -67 -23 c-94 -31 -225 -38 -306 -16 -166 45 -255 184 -245 381 9
172 89 286 233 331 62 20 166 17 227 -6z m772 14 c12 -5 16 -20 16 -64 l0 -57
-46 15 c-94 31 -188 -15 -230 -113 -15 -33 -19 -80 -22 -267 l-4 -228 -59 0
-59 0 0 350 0 350 60 0 60 0 0 -52 0 -53 31 38 c30 37 70 63 119 78 31 9 113
11 134 3z m-1364 -364 l0 -50 -170 0 -170 0 0 50 0 50 170 0 170 0 0 -50z"/>
<path d="M3149 4310 c-75 -22 -122 -87 -139 -192 -20 -131 22 -267 96 -310 78
-46 184 -26 237 44 82 107 68 345 -25 423 -46 39 -112 53 -169 35z"/>
<path d="M2280 2665 l0 -368 138 5 c109 5 149 10 196 28 75 29 127 76 157 143
22 47 24 66 24 192 0 126 -2 145 -24 192 -30 67 -82 114 -157 143 -47 18 -87
23 -196 28 l-138 5 0 -368z"/>
<path d="M3359 2810 c-75 -22 -122 -87 -139 -192 -20 -131 22 -267 96 -310 78
-46 184 -26 237 44 82 107 68 345 -25 423 -46 39 -112 53 -169 35z"/>
<path d="M2380 1311 c-80 -25 -135 -83 -147 -155 l-6 -36 202 0 201 0 0 28
c-1 35 -31 102 -58 125 -43 39 -131 56 -192 38z"/>
</g>
</svg>
